<svg xmlns="http://www.w3.org/2000/svg" width="1200" height="800" viewBox="0 0 1200 800">
  <style>
    .box { fill:#1f2937; stroke:#9ca3af; stroke-width:2px; rx:8; }
    .label { fill:#fff; font-family:Arial,Helvetica,sans-serif; font-size:14px; }
    .title { fill:#fff; font-family:Arial,Helvetica,sans-serif; font-size:18px; font-weight:bold; }
    .small { fill:#cbd5e1; font-size:12px; }
  </style>
  <rect x="20" y="20" width="1160" height="760" rx="12" fill="#0f172a" />
  <text x="40" y="60" class="title">FUNESTERIE — Cortex Overview</text>

  <!-- QFLUSH -->
  <rect class="box" x="40" y="80" width="360" height="120"/>
  <text x="60" y="110" class="label">QFLUSH</text>
  <text x="60" y="130" class="small">CLI orchestrator, daemon, bridge</text>

  <!-- BAT -->
  <rect class="box" x="440" y="80" width="200" height="90"/>
  <text x="460" y="110" class="label">BAT</text>
  <text x="460" y="130" class="small">process manager</text>

  <!-- ROME -->
  <rect class="box" x="680" y="80" width="420" height="120"/>
  <text x="700" y="110" class="label">ROME</text>
  <text x="700" y="130" class="small">index, engine, linker, rules</text>

  <!-- NPZ -->
  <rect class="box" x="40" y="230" width="320" height="90"/>
  <text x="60" y="260" class="label">NPZ</text>
  <text x="60" y="280" class="small">router, checksums, admin API</text>

  <!-- NEZLEPHANT -->
  <rect class="box" x="440" y="230" width="300" height="90"/>
  <text x="460" y="260" class="label">Nezlephant</text>
  <text x="460" y="280" class="small">OC8/PNG storage</text>

  <!-- COPILOT BRIDGE -->
  <rect class="box" x="820" y="230" width="280" height="90"/>
  <text x="840" y="260" class="label">Copilot Bridge</text>
  <text x="840" y="280" class="small">telemetry & IDE</text>

  <!-- A11/SPYDER -->
  <rect class="box" x="40" y="360" width="360" height="120"/>
  <text x="60" y="390" class="label">A11</text>
  <text x="60" y="410" class="small">AI interface (LLM)</text>

  <rect class="box" x="440" y="360" width="380" height="120"/>
  <text x="460" y="390" class="label">SPYDER</text>
  <text x="460" y="410" class="small">neuronal engine (future)</text>

  <!-- Arrows -->
  <line x1="400" y1="140" x2="440" y2="140" stroke="#9ca3af" stroke-width="2" marker-end="url(#arrow)"/>
  <line x1="660" y1="140" x2="680" y2="140" stroke="#9ca3af" stroke-width="2" marker-end="url(#arrow)"/>
  <line x1="200" y1="230" x2="200" y2="320" stroke="#9ca3af" stroke-width="2" />
  <line x1="560" y1="320" x2="560" y2="360" stroke="#9ca3af" stroke-width="2" />

  <defs>
    <marker id="arrow" viewBox="0 0 10 10" refX="8" refY="5" markerWidth="6" markerHeight="6" orient="auto-start-reverse">
      <path d="M 0 0 L 10 5 L 0 10 z" fill="#9ca3af" />
    </marker>
  </defs>

</svg>
